<?xml version="1.0" encoding="UTF-8" standalone="no"?>
<!DOCTYPE svg PUBLIC "-//W3C//DTD SVG 1.1//EN"
 "http://www.w3.org/Graphics/SVG/1.1/DTD/svg11.dtd">
<!-- Generated by graphviz version 2.40.1 (20161225.0304)
 -->
<!-- Title: %3 Pages: 1 -->
<svg width="812pt" height="595pt"
 viewBox="0.00 0.00 811.50 595.00" xmlns="http://www.w3.org/2000/svg" xmlns:xlink="http://www.w3.org/1999/xlink">
<g id="graph0" class="graph" transform="scale(1 1) rotate(0) translate(4 591)">
<title>%3</title>
<polygon fill="#ffffff" stroke="transparent" points="-4,4 -4,-591 807.5,-591 807.5,4 -4,4"/>
<g id="clust3" class="cluster">
<title>cluster_eth</title>
<polygon fill="none" stroke="#000000" stroke-dasharray="1,5" points="8,-352 8,-451 343,-451 343,-352 8,-352"/>
<text text-anchor="start" x="73" y="-362" font-family="Helvetica,sans-Serif" font-size="20.00" fill="#000000">Ethernet Infrastructure</text>
</g>
<g id="clust5" class="cluster">
<title>cluster_PCIE</title>
<polygon fill="none" stroke="#000000" stroke-dasharray="1,5" points="351,-352 351,-523 739,-523 739,-352 351,-352"/>
<text text-anchor="start" x="453.5" y="-362" font-family="Helvetica,sans-Serif" font-size="20.00" fill="#000000">IPBus Infrastructure</text>
</g>
<g id="clust6" class="cluster">
<title>cluster_readout_board</title>
<polygon fill="none" stroke="#000000" stroke-dasharray="1,5" points="142,-8 142,-278 648,-278 648,-8 142,-8"/>
<text text-anchor="start" x="326" y="-18" font-family="Helvetica,sans-Serif" font-size="20.00" fill="#000000">Readout Board</text>
</g>
<g id="clust7" class="cluster">
<title>cluster_etroc</title>
<polygon fill="none" stroke="#000000" stroke-dasharray="1,5" points="150,-46 150,-130 640,-130 640,-46 150,-46"/>
<text text-anchor="start" x="358.5" y="-56" font-family="Helvetica,sans-Serif" font-size="20.00" fill="#000000">ETROC</text>
</g>
<!-- SFP/Firefly -->
<g id="node1" class="node">
<title>SFP/Firefly</title>
<polygon fill="#add8e6" stroke="#add8e6" points="803.5,-587 714.5,-587 714.5,-551 803.5,-551 803.5,-587"/>
<text text-anchor="middle" x="759" y="-565.3" font-family="Helvetica,sans-Serif" font-size="14.00" fill="#000000">SFP/Firefly</text>
</g>
<!-- MGT\nWrapper -->
<g id="node4" class="node">
<title>MGT\nWrapper</title>
<polygon fill="#add8e6" stroke="#add8e6" points="524,-344 452,-344 452,-306 524,-306 524,-344"/>
<text text-anchor="middle" x="488" y="-328.8" font-family="Helvetica,sans-Serif" font-size="14.00" fill="#000000">MGT</text>
<text text-anchor="middle" x="488" y="-313.8" font-family="Helvetica,sans-Serif" font-size="14.00" fill="#000000">Wrapper</text>
</g>
<!-- SFP/Firefly&#45;&gt;MGT\nWrapper -->
<g id="edge16" class="edge">
<title>SFP/Firefly&#45;&gt;MGT\nWrapper</title>
<path fill="none" stroke="#000000" d="M764.417,-550.8074C775.5628,-509.209 795.8274,-406.5395 743,-352 728.7851,-337.3244 603.8298,-329.8123 534.2664,-326.7365"/>
<polygon fill="#000000" stroke="#000000" points="534.1544,-323.2286 524.0138,-326.2975 533.8549,-330.2222 534.1544,-323.2286"/>
</g>
<!-- PCIE -->
<g id="node2" class="node">
<title>PCIE</title>
<polygon fill="#add8e6" stroke="#add8e6" points="579,-587 529,-587 529,-551 579,-551 579,-587"/>
<text text-anchor="middle" x="554" y="-565.3" font-family="Helvetica,sans-Serif" font-size="14.00" fill="#000000">PCIE</text>
</g>
<!-- PCIE Infra -->
<g id="node12" class="node">
<title>PCIE Infra</title>
<polygon fill="#add8e6" stroke="#add8e6" points="595.5,-515 512.5,-515 512.5,-479 595.5,-479 595.5,-515"/>
<text text-anchor="middle" x="554" y="-493.3" font-family="Helvetica,sans-Serif" font-size="14.00" fill="#000000">PCIE Infra</text>
</g>
<!-- PCIE&#45;&gt;PCIE Infra -->
<g id="edge11" class="edge">
<title>PCIE&#45;&gt;PCIE Infra</title>
<path fill="none" stroke="#000000" d="M554,-550.8314C554,-543.131 554,-533.9743 554,-525.4166"/>
<polygon fill="#000000" stroke="#000000" points="557.5001,-525.4132 554,-515.4133 550.5001,-525.4133 557.5001,-525.4132"/>
</g>
<!-- Control -->
<g id="node3" class="node">
<title>Control</title>
<polygon fill="#add8e6" stroke="#add8e6" points="433.5,-343 370.5,-343 370.5,-307 433.5,-307 433.5,-343"/>
<text text-anchor="middle" x="402" y="-321.3" font-family="Helvetica,sans-Serif" font-size="14.00" fill="#000000">Control</text>
</g>
<!-- Control&#45;&gt;MGT\nWrapper -->
<g id="edge9" class="edge">
<title>Control&#45;&gt;MGT\nWrapper</title>
<path fill="none" stroke="#000000" d="M433.5781,-325C436.2443,-325 438.9105,-325 441.5767,-325"/>
<polygon fill="#000000" stroke="#000000" points="441.8605,-328.5001 451.8605,-325 441.8604,-321.5001 441.8605,-328.5001"/>
</g>
<!-- Readout\nBoard -->
<g id="node11" class="node">
<title>Readout\nBoard</title>
<polygon fill="#add8e6" stroke="#add8e6" points="481,-270 409,-270 409,-232 481,-232 481,-270"/>
<text text-anchor="middle" x="445" y="-254.8" font-family="Helvetica,sans-Serif" font-size="14.00" fill="#000000">Readout</text>
<text text-anchor="middle" x="445" y="-239.8" font-family="Helvetica,sans-Serif" font-size="14.00" fill="#000000">Board</text>
</g>
<!-- Control&#45;&gt;Readout\nBoard -->
<g id="edge10" class="edge">
<title>Control&#45;&gt;Readout\nBoard</title>
<path fill="none" stroke="#000000" d="M412.6292,-306.7079C417.4789,-298.3619 423.33,-288.2926 428.7162,-279.0232"/>
<polygon fill="#000000" stroke="#000000" points="431.8952,-280.5187 433.8932,-270.114 425.8428,-277.0017 431.8952,-280.5187"/>
</g>
<!-- MGT\nWrapper&#45;&gt;Readout\nBoard -->
<g id="edge17" class="edge">
<title>MGT\nWrapper&#45;&gt;Readout\nBoard</title>
<path fill="none" stroke="#000000" d="M476.9264,-305.9432C472.1487,-297.721 466.4646,-287.9391 461.2258,-278.9235"/>
<polygon fill="#000000" stroke="#000000" points="464.2359,-277.1372 456.1855,-270.2495 458.1835,-280.6542 464.2359,-277.1372"/>
</g>
<!-- RJ45 -->
<g id="node5" class="node">
<title>RJ45</title>
<polygon fill="#add8e6" stroke="#add8e6" points="199.5,-587 148.5,-587 148.5,-551 199.5,-551 199.5,-587"/>
<text text-anchor="middle" x="174" y="-565.3" font-family="Helvetica,sans-Serif" font-size="14.00" fill="#000000">RJ45</text>
</g>
<!-- Eth Infra -->
<g id="node6" class="node">
<title>Eth Infra</title>
<polygon fill="#add8e6" stroke="#add8e6" points="209.5,-515 138.5,-515 138.5,-479 209.5,-479 209.5,-515"/>
<text text-anchor="middle" x="174" y="-493.3" font-family="Helvetica,sans-Serif" font-size="14.00" fill="#000000">Eth Infra</text>
</g>
<!-- RJ45&#45;&gt;Eth Infra -->
<g id="edge1" class="edge">
<title>RJ45&#45;&gt;Eth Infra</title>
<path fill="none" stroke="#000000" d="M174,-550.8314C174,-543.131 174,-533.9743 174,-525.4166"/>
<polygon fill="#000000" stroke="#000000" points="177.5001,-525.4132 174,-515.4133 170.5001,-525.4133 177.5001,-525.4132"/>
</g>
<!-- PCS/PMA -->
<g id="node7" class="node">
<title>PCS/PMA</title>
<polygon fill="#add8e6" stroke="#add8e6" points="98,-434.5 16,-434.5 16,-398.5 98,-398.5 98,-434.5"/>
<text text-anchor="middle" x="57" y="-412.8" font-family="Helvetica,sans-Serif" font-size="14.00" fill="#000000">PCS/PMA</text>
</g>
<!-- Eth Infra&#45;&gt;PCS/PMA -->
<g id="edge2" class="edge">
<title>Eth Infra&#45;&gt;PCS/PMA</title>
<path fill="none" stroke="#000000" d="M147.7429,-478.9342C131.1836,-467.5409 109.6119,-452.6988 91.6559,-440.3445"/>
<polygon fill="#000000" stroke="#000000" points="93.3917,-437.2904 83.1694,-434.5055 89.4239,-443.0572 93.3917,-437.2904"/>
</g>
<!-- MAC -->
<g id="node8" class="node">
<title>MAC</title>
<polygon fill="#add8e6" stroke="#add8e6" points="165.5,-434.5 116.5,-434.5 116.5,-398.5 165.5,-398.5 165.5,-434.5"/>
<text text-anchor="middle" x="141" y="-412.8" font-family="Helvetica,sans-Serif" font-size="14.00" fill="#000000">MAC</text>
</g>
<!-- Eth Infra&#45;&gt;MAC -->
<g id="edge3" class="edge">
<title>Eth Infra&#45;&gt;MAC</title>
<path fill="none" stroke="#000000" d="M166.5118,-478.7333C162.3347,-468.5438 157.0461,-455.6429 152.3686,-444.2324"/>
<polygon fill="#000000" stroke="#000000" points="155.4901,-442.6195 148.4586,-434.6944 149.0132,-445.2747 155.4901,-442.6195"/>
</g>
<!-- UDP -->
<g id="node9" class="node">
<title>UDP</title>
<polygon fill="#add8e6" stroke="#add8e6" points="230.5,-434.5 183.5,-434.5 183.5,-398.5 230.5,-398.5 230.5,-434.5"/>
<text text-anchor="middle" x="207" y="-412.8" font-family="Helvetica,sans-Serif" font-size="14.00" fill="#000000">UDP</text>
</g>
<!-- Eth Infra&#45;&gt;UDP -->
<g id="edge4" class="edge">
<title>Eth Infra&#45;&gt;UDP</title>
<path fill="none" stroke="#000000" d="M181.4882,-478.7333C185.6653,-468.5438 190.9539,-455.6429 195.6314,-444.2324"/>
<polygon fill="#000000" stroke="#000000" points="198.9868,-445.2747 199.5414,-434.6944 192.5099,-442.6195 198.9868,-445.2747"/>
</g>
<!-- Ethernet\nIPBus\nTransactor -->
<g id="node10" class="node">
<title>Ethernet\nIPBus\nTransactor</title>
<polygon fill="#add8e6" stroke="#add8e6" points="335,-443 249,-443 249,-390 335,-390 335,-443"/>
<text text-anchor="middle" x="292" y="-427.8" font-family="Helvetica,sans-Serif" font-size="14.00" fill="#000000">Ethernet</text>
<text text-anchor="middle" x="292" y="-412.8" font-family="Helvetica,sans-Serif" font-size="14.00" fill="#000000">IPBus</text>
<text text-anchor="middle" x="292" y="-397.8" font-family="Helvetica,sans-Serif" font-size="14.00" fill="#000000">Transactor</text>
</g>
<!-- Eth Infra&#45;&gt;Ethernet\nIPBus\nTransactor -->
<g id="edge5" class="edge">
<title>Eth Infra&#45;&gt;Ethernet\nIPBus\nTransactor</title>
<path fill="none" stroke="#000000" d="M200.4815,-478.9342C213.4323,-470.0991 229.4231,-459.1902 244.396,-448.9756"/>
<polygon fill="#000000" stroke="#000000" points="246.7751,-451.5895 253.0635,-443.0626 242.8302,-445.8069 246.7751,-451.5895"/>
</g>
<!-- PCS/PMA&#45;&gt;MAC -->
<g id="edge6" class="edge">
<title>PCS/PMA&#45;&gt;MAC</title>
<path fill="none" stroke="#000000" d="M98.0156,-416.5C100.8053,-416.5 103.5951,-416.5 106.3848,-416.5"/>
<polygon fill="#000000" stroke="#000000" points="106.4855,-420.0001 116.4855,-416.5 106.4854,-413.0001 106.4855,-420.0001"/>
</g>
<!-- MAC&#45;&gt;UDP -->
<g id="edge7" class="edge">
<title>MAC&#45;&gt;UDP</title>
<path fill="none" stroke="#000000" d="M165.75,-416.5C168.2425,-416.5 170.735,-416.5 173.2276,-416.5"/>
<polygon fill="#000000" stroke="#000000" points="173.4746,-420.0001 183.4746,-416.5 173.4746,-413.0001 173.4746,-420.0001"/>
</g>
<!-- UDP&#45;&gt;Ethernet\nIPBus\nTransactor -->
<g id="edge8" class="edge">
<title>UDP&#45;&gt;Ethernet\nIPBus\nTransactor</title>
<path fill="none" stroke="#000000" d="M230.5742,-416.5C233.2336,-416.5 235.893,-416.5 238.5524,-416.5"/>
<polygon fill="#000000" stroke="#000000" points="238.81,-420.0001 248.81,-416.5 238.81,-413.0001 238.81,-420.0001"/>
</g>
<!-- Ethernet\nIPBus\nTransactor&#45;&gt;Control -->
<g id="edge26" class="edge">
<title>Ethernet\nIPBus\nTransactor&#45;&gt;Control</title>
<path fill="none" stroke="#000000" d="M310.7619,-389.7664C320.5306,-377.1906 333.2873,-362.6543 347,-352 351.4099,-348.5737 356.3241,-345.4171 361.3505,-342.5638"/>
<polygon fill="#000000" stroke="#000000" points="363.2286,-345.53 370.4341,-337.7626 359.9575,-339.3413 363.2286,-345.53"/>
</g>
<!-- DAQ\nLPGBT -->
<g id="node17" class="node">
<title>DAQ\nLPGBT</title>
<polygon fill="#add8e6" stroke="#add8e6" points="344.5,-196 279.5,-196 279.5,-158 344.5,-158 344.5,-196"/>
<text text-anchor="middle" x="312" y="-180.8" font-family="Helvetica,sans-Serif" font-size="14.00" fill="#000000">DAQ</text>
<text text-anchor="middle" x="312" y="-165.8" font-family="Helvetica,sans-Serif" font-size="14.00" fill="#000000">LPGBT</text>
</g>
<!-- Readout\nBoard&#45;&gt;DAQ\nLPGBT -->
<g id="edge18" class="edge">
<title>Readout\nBoard&#45;&gt;DAQ\nLPGBT</title>
<path fill="none" stroke="#000000" d="M410.7492,-231.9432C393.2874,-222.2276 371.9112,-210.3341 353.5184,-200.1005"/>
<polygon fill="#000000" stroke="#000000" points="355.1993,-197.0305 344.7591,-195.2269 351.7959,-203.1474 355.1993,-197.0305"/>
</g>
<!-- Trigger\nLPGBT -->
<g id="node18" class="node">
<title>Trigger\nLPGBT</title>
<polygon fill="#add8e6" stroke="#add8e6" points="477.5,-196 412.5,-196 412.5,-158 477.5,-158 477.5,-196"/>
<text text-anchor="middle" x="445" y="-180.8" font-family="Helvetica,sans-Serif" font-size="14.00" fill="#000000">Trigger</text>
<text text-anchor="middle" x="445" y="-165.8" font-family="Helvetica,sans-Serif" font-size="14.00" fill="#000000">LPGBT</text>
</g>
<!-- Readout\nBoard&#45;&gt;Trigger\nLPGBT -->
<g id="edge19" class="edge">
<title>Readout\nBoard&#45;&gt;Trigger\nLPGBT</title>
<path fill="none" stroke="#000000" d="M445,-231.9432C445,-224.1493 445,-214.9538 445,-206.3381"/>
<polygon fill="#000000" stroke="#000000" points="448.5001,-206.2494 445,-196.2495 441.5001,-206.2495 448.5001,-206.2494"/>
</g>
<!-- GBT&#45;SC\nController -->
<g id="node19" class="node">
<title>GBT&#45;SC\nController</title>
<polygon fill="#add8e6" stroke="#add8e6" points="597.5,-196 518.5,-196 518.5,-158 597.5,-158 597.5,-196"/>
<text text-anchor="middle" x="558" y="-180.8" font-family="Helvetica,sans-Serif" font-size="14.00" fill="#000000">GBT&#45;SC</text>
<text text-anchor="middle" x="558" y="-165.8" font-family="Helvetica,sans-Serif" font-size="14.00" fill="#000000">Controller</text>
</g>
<!-- Readout\nBoard&#45;&gt;GBT&#45;SC\nController -->
<g id="edge20" class="edge">
<title>Readout\nBoard&#45;&gt;GBT&#45;SC\nController</title>
<path fill="none" stroke="#000000" d="M474.1003,-231.9432C488.0944,-222.7789 505.0474,-211.677 520.0411,-201.8581"/>
<polygon fill="#000000" stroke="#000000" points="522.1573,-204.656 528.6056,-196.2495 518.3223,-198.7999 522.1573,-204.656"/>
</g>
<!-- AXI\nIPBus\nTransactor -->
<g id="node13" class="node">
<title>AXI\nIPBus\nTransactor</title>
<polygon fill="#add8e6" stroke="#add8e6" points="445,-443 359,-443 359,-390 445,-390 445,-443"/>
<text text-anchor="middle" x="402" y="-427.8" font-family="Helvetica,sans-Serif" font-size="14.00" fill="#000000">AXI</text>
<text text-anchor="middle" x="402" y="-412.8" font-family="Helvetica,sans-Serif" font-size="14.00" fill="#000000">IPBus</text>
<text text-anchor="middle" x="402" y="-397.8" font-family="Helvetica,sans-Serif" font-size="14.00" fill="#000000">Transactor</text>
</g>
<!-- PCIE Infra&#45;&gt;AXI\nIPBus\nTransactor -->
<g id="edge12" class="edge">
<title>PCIE Infra&#45;&gt;AXI\nIPBus\nTransactor</title>
<path fill="none" stroke="#000000" d="M512.4065,-479.2583C494.4571,-471.1987 473.4008,-461.1963 455,-451 453.4815,-450.1586 451.9483,-449.2894 450.4082,-448.3993"/>
<polygon fill="#000000" stroke="#000000" points="451.9435,-445.2395 441.5634,-443.117 448.3543,-451.2494 451.9435,-445.2395"/>
</g>
<!-- Clock\nGeneration -->
<g id="node14" class="node">
<title>Clock\nGeneration</title>
<polygon fill="#add8e6" stroke="#add8e6" points="552.5,-435.5 463.5,-435.5 463.5,-397.5 552.5,-397.5 552.5,-435.5"/>
<text text-anchor="middle" x="508" y="-420.3" font-family="Helvetica,sans-Serif" font-size="14.00" fill="#000000">Clock</text>
<text text-anchor="middle" x="508" y="-405.3" font-family="Helvetica,sans-Serif" font-size="14.00" fill="#000000">Generation</text>
</g>
<!-- PCIE Infra&#45;&gt;Clock\nGeneration -->
<g id="edge13" class="edge">
<title>PCIE Infra&#45;&gt;Clock\nGeneration</title>
<path fill="none" stroke="#000000" d="M543.5619,-478.7333C537.7472,-468.5576 530.3873,-455.6777 523.8736,-444.2787"/>
<polygon fill="#000000" stroke="#000000" points="526.8771,-442.4803 518.8768,-435.5344 520.7994,-445.9533 526.8771,-442.4803"/>
</g>
<!-- XDMA -->
<g id="node15" class="node">
<title>XDMA</title>
<polygon fill="#add8e6" stroke="#add8e6" points="629.5,-434.5 570.5,-434.5 570.5,-398.5 629.5,-398.5 629.5,-434.5"/>
<text text-anchor="middle" x="600" y="-412.8" font-family="Helvetica,sans-Serif" font-size="14.00" fill="#000000">XDMA</text>
</g>
<!-- PCIE Infra&#45;&gt;XDMA -->
<g id="edge14" class="edge">
<title>PCIE Infra&#45;&gt;XDMA</title>
<path fill="none" stroke="#000000" d="M564.4381,-478.7333C570.3783,-468.3379 577.9311,-455.1205 584.547,-443.5428"/>
<polygon fill="#000000" stroke="#000000" points="587.6806,-445.1134 589.6032,-434.6944 581.6029,-441.6403 587.6806,-445.1134"/>
</g>
<!-- AXI IPBus\nTransport -->
<g id="node16" class="node">
<title>AXI IPBus\nTransport</title>
<polygon fill="#add8e6" stroke="#add8e6" points="730.5,-435.5 647.5,-435.5 647.5,-397.5 730.5,-397.5 730.5,-435.5"/>
<text text-anchor="middle" x="689" y="-420.3" font-family="Helvetica,sans-Serif" font-size="14.00" fill="#000000">AXI IPBus</text>
<text text-anchor="middle" x="689" y="-405.3" font-family="Helvetica,sans-Serif" font-size="14.00" fill="#000000">Transport</text>
</g>
<!-- PCIE Infra&#45;&gt;AXI IPBus\nTransport -->
<g id="edge15" class="edge">
<title>PCIE Infra&#45;&gt;AXI IPBus\nTransport</title>
<path fill="none" stroke="#000000" d="M589.6351,-478.8146C605.0327,-470.6764 623.1218,-460.7353 639,-451 643.8327,-448.037 648.8402,-444.7973 653.7361,-441.5278"/>
<polygon fill="#000000" stroke="#000000" points="656.0621,-444.1789 662.3662,-435.6637 652.1279,-438.389 656.0621,-444.1789"/>
</g>
<!-- AXI\nIPBus\nTransactor&#45;&gt;Control -->
<g id="edge25" class="edge">
<title>AXI\nIPBus\nTransactor&#45;&gt;Control</title>
<path fill="none" stroke="#000000" d="M402,-389.5419C402,-378.0796 402,-364.7125 402,-353.1258"/>
<polygon fill="#000000" stroke="#000000" points="405.5001,-353.0911 402,-343.0911 398.5001,-353.0912 405.5001,-353.0911"/>
</g>
<!-- ETROC TX -->
<g id="node21" class="node">
<title>ETROC TX</title>
<polygon fill="#add8e6" stroke="#add8e6" points="248,-121 158,-121 158,-85 248,-85 248,-121"/>
<text text-anchor="middle" x="203" y="-99.3" font-family="Helvetica,sans-Serif" font-size="14.00" fill="#000000">ETROC TX</text>
</g>
<!-- DAQ\nLPGBT&#45;&gt;ETROC TX -->
<g id="edge22" class="edge">
<title>DAQ\nLPGBT&#45;&gt;ETROC TX</title>
<path fill="none" stroke="#000000" d="M283.9298,-157.9432C270.0093,-148.4925 253.0534,-136.9812 238.265,-126.9414"/>
<polygon fill="#000000" stroke="#000000" points="240.0871,-123.948 229.8477,-121.2269 236.1553,-129.7395 240.0871,-123.948"/>
</g>
<!-- ETROC RX -->
<g id="node22" class="node">
<title>ETROC RX</title>
<polygon fill="#add8e6" stroke="#add8e6" points="358,-121 266,-121 266,-85 358,-85 358,-121"/>
<text text-anchor="middle" x="312" y="-99.3" font-family="Helvetica,sans-Serif" font-size="14.00" fill="#000000">ETROC RX</text>
</g>
<!-- DAQ\nLPGBT&#45;&gt;ETROC RX -->
<g id="edge23" class="edge">
<title>DAQ\nLPGBT&#45;&gt;ETROC RX</title>
<path fill="none" stroke="#000000" d="M312,-157.9432C312,-149.8174 312,-140.1682 312,-131.2408"/>
<polygon fill="#000000" stroke="#000000" points="315.5001,-131.2268 312,-121.2269 308.5001,-131.2269 315.5001,-131.2268"/>
</g>
<!-- ETROC Trigger Rx -->
<g id="node23" class="node">
<title>ETROC Trigger Rx</title>
<polygon fill="#add8e6" stroke="#add8e6" points="514,-121 376,-121 376,-85 514,-85 514,-121"/>
<text text-anchor="middle" x="445" y="-99.3" font-family="Helvetica,sans-Serif" font-size="14.00" fill="#000000">ETROC Trigger Rx</text>
</g>
<!-- Trigger\nLPGBT&#45;&gt;ETROC Trigger Rx -->
<g id="edge24" class="edge">
<title>Trigger\nLPGBT&#45;&gt;ETROC Trigger Rx</title>
<path fill="none" stroke="#000000" d="M445,-157.9432C445,-149.8174 445,-140.1682 445,-131.2408"/>
<polygon fill="#000000" stroke="#000000" points="448.5001,-131.2268 445,-121.2269 441.5001,-131.2269 448.5001,-131.2268"/>
</g>
<!-- ETROC\nSlow&#45;Control -->
<g id="node20" class="node">
<title>ETROC\nSlow&#45;Control</title>
<polygon fill="#add8e6" stroke="#add8e6" points="631.5,-122 532.5,-122 532.5,-84 631.5,-84 631.5,-122"/>
<text text-anchor="middle" x="582" y="-106.8" font-family="Helvetica,sans-Serif" font-size="14.00" fill="#000000">ETROC</text>
<text text-anchor="middle" x="582" y="-91.8" font-family="Helvetica,sans-Serif" font-size="14.00" fill="#000000">Slow&#45;Control</text>
</g>
<!-- GBT&#45;SC\nController&#45;&gt;ETROC\nSlow&#45;Control -->
<g id="edge21" class="edge">
<title>GBT&#45;SC\nController&#45;&gt;ETROC\nSlow&#45;Control</title>
<path fill="none" stroke="#000000" d="M564.1806,-157.9432C566.7639,-149.978 569.822,-140.549 572.6689,-131.7709"/>
<polygon fill="#000000" stroke="#000000" points="576.0011,-132.8415 575.7569,-122.2495 569.3425,-130.6819 576.0011,-132.8415"/>
</g>
</g>
</svg>
