<?xml version="1.0" encoding="UTF-8" standalone="no"?>
<!DOCTYPE svg PUBLIC "-//W3C//DTD SVG 1.1//EN"
 "http://www.w3.org/Graphics/SVG/1.1/DTD/svg11.dtd">
<!-- Generated by graphviz version 2.43.0 (0)
 -->
<!-- Title: %3 Pages: 1 -->
<svg width="509pt" height="595pt"
 viewBox="0.00 0.00 509.00 595.00" xmlns="http://www.w3.org/2000/svg" xmlns:xlink="http://www.w3.org/1999/xlink">
<g id="graph0" class="graph" transform="scale(1 1) rotate(0) translate(4 591)">
<title>%3</title>
<polygon fill="white" stroke="transparent" points="-4,4 -4,-591 505,-591 505,4 -4,4"/>
<g id="clust3" class="cluster">
<title>cluster_eth</title>
<polygon fill="none" stroke="black" stroke-dasharray="1,5" points="17,-352 17,-451 339,-451 339,-352 17,-352"/>
<text text-anchor="start" x="78.5" y="-362" font-family="Helvetica,sans-Serif" font-size="20.00">Ethernet Infrastructure</text>
</g>
<g id="clust5" class="cluster">
<title>cluster_readout_board</title>
<polygon fill="none" stroke="black" stroke-dasharray="1,5" points="8,-8 8,-278 493,-278 493,-8 8,-8"/>
<text text-anchor="start" x="182.5" y="-18" font-family="Helvetica,sans-Serif" font-size="20.00">Readout Board</text>
</g>
<g id="clust6" class="cluster">
<title>cluster_etroc</title>
<polygon fill="none" stroke="black" stroke-dasharray="1,5" points="16,-46 16,-130 485,-130 485,-46 16,-46"/>
<text text-anchor="start" x="215.5" y="-56" font-family="Helvetica,sans-Serif" font-size="20.00">ETROC</text>
</g>
<!-- RJ45 -->
<g id="node1" class="node">
<title>RJ45</title>
<polygon fill="lightblue" stroke="lightblue" points="201,-587 153,-587 153,-551 201,-551 201,-587"/>
<text text-anchor="middle" x="177" y="-565.3" font-family="Helvetica,sans-Serif" font-size="14.00">RJ45</text>
</g>
<!-- Eth Infra -->
<g id="node5" class="node">
<title>Eth Infra</title>
<polygon fill="lightblue" stroke="lightblue" points="211,-515 143,-515 143,-479 211,-479 211,-515"/>
<text text-anchor="middle" x="177" y="-493.3" font-family="Helvetica,sans-Serif" font-size="14.00">Eth Infra</text>
</g>
<!-- RJ45&#45;&gt;Eth Infra -->
<g id="edge1" class="edge">
<title>RJ45&#45;&gt;Eth Infra</title>
<path fill="none" stroke="black" d="M177,-550.7C177,-542.98 177,-533.71 177,-525.11"/>
<polygon fill="black" stroke="black" points="180.5,-525.1 177,-515.1 173.5,-525.1 180.5,-525.1"/>
</g>
<!-- SFP/Firefly -->
<g id="node2" class="node">
<title>SFP/Firefly</title>
<polygon fill="lightblue" stroke="lightblue" points="413.5,-587 330.5,-587 330.5,-551 413.5,-551 413.5,-587"/>
<text text-anchor="middle" x="372" y="-565.3" font-family="Helvetica,sans-Serif" font-size="14.00">SFP/Firefly</text>
</g>
<!-- MGT\nWrapper -->
<g id="node4" class="node">
<title>MGT\nWrapper</title>
<polygon fill="lightblue" stroke="lightblue" points="406,-344 338,-344 338,-306 406,-306 406,-344"/>
<text text-anchor="middle" x="372" y="-328.8" font-family="Helvetica,sans-Serif" font-size="14.00">MGT</text>
<text text-anchor="middle" x="372" y="-313.8" font-family="Helvetica,sans-Serif" font-size="14.00">Wrapper</text>
</g>
<!-- SFP/Firefly&#45;&gt;MGT\nWrapper -->
<g id="edge11" class="edge">
<title>SFP/Firefly&#45;&gt;MGT\nWrapper</title>
<path fill="none" stroke="black" d="M372,-550.98C372,-509.99 372,-405.4 372,-354.58"/>
<polygon fill="black" stroke="black" points="375.5,-354.31 372,-344.31 368.5,-354.31 375.5,-354.31"/>
</g>
<!-- Control -->
<g id="node3" class="node">
<title>Control</title>
<polygon fill="lightblue" stroke="lightblue" points="320,-343 260,-343 260,-307 320,-307 320,-343"/>
<text text-anchor="middle" x="290" y="-321.3" font-family="Helvetica,sans-Serif" font-size="14.00">Control</text>
</g>
<!-- Control&#45;&gt;MGT\nWrapper -->
<g id="edge9" class="edge">
<title>Control&#45;&gt;MGT\nWrapper</title>
<path fill="none" stroke="black" d="M320.11,-325C322.71,-325 325.31,-325 327.91,-325"/>
<polygon fill="black" stroke="black" points="327.95,-328.5 337.95,-325 327.95,-321.5 327.95,-328.5"/>
</g>
<!-- Readout\nBoard -->
<g id="node10" class="node">
<title>Readout\nBoard</title>
<polygon fill="lightblue" stroke="lightblue" points="333,-270 265,-270 265,-232 333,-232 333,-270"/>
<text text-anchor="middle" x="299" y="-254.8" font-family="Helvetica,sans-Serif" font-size="14.00">Readout</text>
<text text-anchor="middle" x="299" y="-239.8" font-family="Helvetica,sans-Serif" font-size="14.00">Board</text>
</g>
<!-- Control&#45;&gt;Readout\nBoard -->
<g id="edge10" class="edge">
<title>Control&#45;&gt;Readout\nBoard</title>
<path fill="none" stroke="black" d="M292.13,-306.94C293.13,-298.99 294.34,-289.31 295.46,-280.31"/>
<polygon fill="black" stroke="black" points="298.96,-280.56 296.73,-270.2 292.01,-279.69 298.96,-280.56"/>
</g>
<!-- MGT\nWrapper&#45;&gt;Readout\nBoard -->
<g id="edge12" class="edge">
<title>MGT\nWrapper&#45;&gt;Readout\nBoard</title>
<path fill="none" stroke="black" d="M353.58,-305.83C344.85,-297.22 334.27,-286.79 324.76,-277.4"/>
<polygon fill="black" stroke="black" points="326.99,-274.69 317.42,-270.16 322.08,-279.68 326.99,-274.69"/>
</g>
<!-- PCS/PMA -->
<g id="node6" class="node">
<title>PCS/PMA</title>
<polygon fill="lightblue" stroke="lightblue" points="103,-434.5 25,-434.5 25,-398.5 103,-398.5 103,-434.5"/>
<text text-anchor="middle" x="64" y="-412.8" font-family="Helvetica,sans-Serif" font-size="14.00">PCS/PMA</text>
</g>
<!-- Eth Infra&#45;&gt;PCS/PMA -->
<g id="edge2" class="edge">
<title>Eth Infra&#45;&gt;PCS/PMA</title>
<path fill="none" stroke="black" d="M152.29,-478.93C140.15,-470.53 125.3,-460.24 112,-451 107.08,-447.58 101.88,-443.96 96.8,-440.41"/>
<polygon fill="black" stroke="black" points="98.61,-437.41 88.41,-434.56 94.6,-443.15 98.61,-437.41"/>
</g>
<!-- MAC -->
<g id="node7" class="node">
<title>MAC</title>
<polygon fill="lightblue" stroke="lightblue" points="168.5,-434.5 121.5,-434.5 121.5,-398.5 168.5,-398.5 168.5,-434.5"/>
<text text-anchor="middle" x="145" y="-412.8" font-family="Helvetica,sans-Serif" font-size="14.00">MAC</text>
</g>
<!-- Eth Infra&#45;&gt;MAC -->
<g id="edge3" class="edge">
<title>Eth Infra&#45;&gt;MAC</title>
<path fill="none" stroke="black" d="M170.06,-478.97C165.91,-468.78 160.54,-455.62 155.84,-444.1"/>
<polygon fill="black" stroke="black" points="158.95,-442.44 151.93,-434.5 152.46,-445.08 158.95,-442.44"/>
</g>
<!-- UDP -->
<g id="node8" class="node">
<title>UDP</title>
<polygon fill="lightblue" stroke="lightblue" points="231.5,-434.5 186.5,-434.5 186.5,-398.5 231.5,-398.5 231.5,-434.5"/>
<text text-anchor="middle" x="209" y="-412.8" font-family="Helvetica,sans-Serif" font-size="14.00">UDP</text>
</g>
<!-- Eth Infra&#45;&gt;UDP -->
<g id="edge4" class="edge">
<title>Eth Infra&#45;&gt;UDP</title>
<path fill="none" stroke="black" d="M183.94,-478.97C188.09,-468.78 193.46,-455.62 198.16,-444.1"/>
<polygon fill="black" stroke="black" points="201.54,-445.08 202.07,-434.5 195.05,-442.44 201.54,-445.08"/>
</g>
<!-- Ethernet\nIPBus\nTransactor -->
<g id="node9" class="node">
<title>Ethernet\nIPBus\nTransactor</title>
<polygon fill="lightblue" stroke="lightblue" points="330.5,-443 249.5,-443 249.5,-390 330.5,-390 330.5,-443"/>
<text text-anchor="middle" x="290" y="-427.8" font-family="Helvetica,sans-Serif" font-size="14.00">Ethernet</text>
<text text-anchor="middle" x="290" y="-412.8" font-family="Helvetica,sans-Serif" font-size="14.00">IPBus</text>
<text text-anchor="middle" x="290" y="-397.8" font-family="Helvetica,sans-Serif" font-size="14.00">Transactor</text>
</g>
<!-- Eth Infra&#45;&gt;Ethernet\nIPBus\nTransactor -->
<g id="edge5" class="edge">
<title>Eth Infra&#45;&gt;Ethernet\nIPBus\nTransactor</title>
<path fill="none" stroke="black" d="M201.52,-478.97C214.11,-470.22 229.85,-459.28 244.56,-449.07"/>
<polygon fill="black" stroke="black" points="246.85,-451.74 253.07,-443.16 242.86,-445.99 246.85,-451.74"/>
</g>
<!-- PCS/PMA&#45;&gt;MAC -->
<g id="edge6" class="edge">
<title>PCS/PMA&#45;&gt;MAC</title>
<path fill="none" stroke="black" d="M103.23,-416.5C105.85,-416.5 108.47,-416.5 111.09,-416.5"/>
<polygon fill="black" stroke="black" points="111.18,-420 121.18,-416.5 111.18,-413 111.18,-420"/>
</g>
<!-- MAC&#45;&gt;UDP -->
<g id="edge7" class="edge">
<title>MAC&#45;&gt;UDP</title>
<path fill="none" stroke="black" d="M169,-416.5C171.46,-416.5 173.92,-416.5 176.38,-416.5"/>
<polygon fill="black" stroke="black" points="176.5,-420 186.5,-416.5 176.5,-413 176.5,-420"/>
</g>
<!-- UDP&#45;&gt;Ethernet\nIPBus\nTransactor -->
<g id="edge8" class="edge">
<title>UDP&#45;&gt;Ethernet\nIPBus\nTransactor</title>
<path fill="none" stroke="black" d="M231.78,-416.5C234.12,-416.5 236.46,-416.5 238.8,-416.5"/>
<polygon fill="black" stroke="black" points="239.06,-420 249.06,-416.5 239.06,-413 239.06,-420"/>
</g>
<!-- Ethernet\nIPBus\nTransactor&#45;&gt;Control -->
<g id="edge20" class="edge">
<title>Ethernet\nIPBus\nTransactor&#45;&gt;Control</title>
<path fill="none" stroke="black" d="M290,-389.61C290,-378.15 290,-364.67 290,-353.07"/>
<polygon fill="black" stroke="black" points="293.5,-353.06 290,-343.06 286.5,-353.06 293.5,-353.06"/>
</g>
<!-- DAQ\nLPGBT -->
<g id="node11" class="node">
<title>DAQ\nLPGBT</title>
<polygon fill="lightblue" stroke="lightblue" points="203,-196 141,-196 141,-158 203,-158 203,-196"/>
<text text-anchor="middle" x="172" y="-180.8" font-family="Helvetica,sans-Serif" font-size="14.00">DAQ</text>
<text text-anchor="middle" x="172" y="-165.8" font-family="Helvetica,sans-Serif" font-size="14.00">LPGBT</text>
</g>
<!-- Readout\nBoard&#45;&gt;DAQ\nLPGBT -->
<g id="edge13" class="edge">
<title>Readout\nBoard&#45;&gt;DAQ\nLPGBT</title>
<path fill="none" stroke="black" d="M266.95,-231.83C250.31,-222.39 229.81,-210.77 212.12,-200.74"/>
<polygon fill="black" stroke="black" points="213.58,-197.55 203.16,-195.67 210.13,-203.64 213.58,-197.55"/>
</g>
<!-- Trigger\nLPGBT -->
<g id="node12" class="node">
<title>Trigger\nLPGBT</title>
<polygon fill="lightblue" stroke="lightblue" points="330,-196 268,-196 268,-158 330,-158 330,-196"/>
<text text-anchor="middle" x="299" y="-180.8" font-family="Helvetica,sans-Serif" font-size="14.00">Trigger</text>
<text text-anchor="middle" x="299" y="-165.8" font-family="Helvetica,sans-Serif" font-size="14.00">LPGBT</text>
</g>
<!-- Readout\nBoard&#45;&gt;Trigger\nLPGBT -->
<g id="edge14" class="edge">
<title>Readout\nBoard&#45;&gt;Trigger\nLPGBT</title>
<path fill="none" stroke="black" d="M299,-231.83C299,-224.13 299,-214.97 299,-206.42"/>
<polygon fill="black" stroke="black" points="302.5,-206.41 299,-196.41 295.5,-206.41 302.5,-206.41"/>
</g>
<!-- GBT&#45;SC\nController -->
<g id="node13" class="node">
<title>GBT&#45;SC\nController</title>
<polygon fill="lightblue" stroke="lightblue" points="445.5,-196 370.5,-196 370.5,-158 445.5,-158 445.5,-196"/>
<text text-anchor="middle" x="408" y="-180.8" font-family="Helvetica,sans-Serif" font-size="14.00">GBT&#45;SC</text>
<text text-anchor="middle" x="408" y="-165.8" font-family="Helvetica,sans-Serif" font-size="14.00">Controller</text>
</g>
<!-- Readout\nBoard&#45;&gt;GBT&#45;SC\nController -->
<g id="edge15" class="edge">
<title>Readout\nBoard&#45;&gt;GBT&#45;SC\nController</title>
<path fill="none" stroke="black" d="M326.51,-231.83C340.32,-222.71 357.23,-211.54 372.05,-201.74"/>
<polygon fill="black" stroke="black" points="374.09,-204.59 380.5,-196.16 370.23,-198.75 374.09,-204.59"/>
</g>
<!-- ETROC TX -->
<g id="node15" class="node">
<title>ETROC TX</title>
<polygon fill="lightblue" stroke="lightblue" points="110,-121 24,-121 24,-85 110,-85 110,-121"/>
<text text-anchor="middle" x="67" y="-99.3" font-family="Helvetica,sans-Serif" font-size="14.00">ETROC TX</text>
</g>
<!-- DAQ\nLPGBT&#45;&gt;ETROC TX -->
<g id="edge17" class="edge">
<title>DAQ\nLPGBT&#45;&gt;ETROC TX</title>
<path fill="none" stroke="black" d="M145.5,-157.83C131.79,-148.43 114.91,-136.86 100.33,-126.85"/>
<polygon fill="black" stroke="black" points="102.27,-123.94 92.04,-121.17 98.31,-129.71 102.27,-123.94"/>
</g>
<!-- ETROC RX -->
<g id="node16" class="node">
<title>ETROC RX</title>
<polygon fill="lightblue" stroke="lightblue" points="215.5,-121 128.5,-121 128.5,-85 215.5,-85 215.5,-121"/>
<text text-anchor="middle" x="172" y="-99.3" font-family="Helvetica,sans-Serif" font-size="14.00">ETROC RX</text>
</g>
<!-- DAQ\nLPGBT&#45;&gt;ETROC RX -->
<g id="edge18" class="edge">
<title>DAQ\nLPGBT&#45;&gt;ETROC RX</title>
<path fill="none" stroke="black" d="M172,-157.83C172,-149.89 172,-140.41 172,-131.63"/>
<polygon fill="black" stroke="black" points="175.5,-131.42 172,-121.42 168.5,-131.42 175.5,-131.42"/>
</g>
<!-- ETROC Trigger Rx -->
<g id="node17" class="node">
<title>ETROC Trigger Rx</title>
<polygon fill="lightblue" stroke="lightblue" points="364.5,-121 233.5,-121 233.5,-85 364.5,-85 364.5,-121"/>
<text text-anchor="middle" x="299" y="-99.3" font-family="Helvetica,sans-Serif" font-size="14.00">ETROC Trigger Rx</text>
</g>
<!-- Trigger\nLPGBT&#45;&gt;ETROC Trigger Rx -->
<g id="edge19" class="edge">
<title>Trigger\nLPGBT&#45;&gt;ETROC Trigger Rx</title>
<path fill="none" stroke="black" d="M299,-157.83C299,-149.89 299,-140.41 299,-131.63"/>
<polygon fill="black" stroke="black" points="302.5,-131.42 299,-121.42 295.5,-131.42 302.5,-131.42"/>
</g>
<!-- ETROC\nSlow&#45;Control -->
<g id="node14" class="node">
<title>ETROC\nSlow&#45;Control</title>
<polygon fill="lightblue" stroke="lightblue" points="477,-122 383,-122 383,-84 477,-84 477,-122"/>
<text text-anchor="middle" x="430" y="-106.8" font-family="Helvetica,sans-Serif" font-size="14.00">ETROC</text>
<text text-anchor="middle" x="430" y="-91.8" font-family="Helvetica,sans-Serif" font-size="14.00">Slow&#45;Control</text>
</g>
<!-- GBT&#45;SC\nController&#45;&gt;ETROC\nSlow&#45;Control -->
<g id="edge16" class="edge">
<title>GBT&#45;SC\nController&#45;&gt;ETROC\nSlow&#45;Control</title>
<path fill="none" stroke="black" d="M413.55,-157.83C415.93,-150.05 418.76,-140.77 421.4,-132.13"/>
<polygon fill="black" stroke="black" points="424.8,-133 424.37,-122.41 418.1,-130.95 424.8,-133"/>
</g>
</g>
</svg>
